<?xml version="1.0" standalone="no"?>
<!DOCTYPE svg PUBLIC "-//W3C//DTD SVG 20010904//EN"
 "http://www.w3.org/TR/2001/REC-SVG-20010904/DTD/svg10.dtd">
<svg version="1.0" xmlns="http://www.w3.org/2000/svg"
 width="260.000000pt" height="260.000000pt" viewBox="0 0 260.000000 260.000000"
 preserveAspectRatio="xMidYMid meet">
<metadata>
Created by potrace 1.14, written by Peter Selinger 2001-2017
</metadata>
<g transform="translate(0.000000,260.000000) scale(0.100000,-0.100000)"
fill="#000000" stroke="none">
<path d="M450 1530 l0 -690 160 0 160 0 2 410 3 409 95 -115 c52 -63 97 -113
101 -112 4 2 27 28 53 59 25 31 72 77 106 102 l60 45 -236 291 -236 291 -134
0 -134 0 0 -690z"/>
<path d="M1403 1833 c4 -214 4 -398 1 -411 -5 -16 -12 -21 -25 -17 -47 15
-186 -172 -177 -239 2 -15 54 -87 128 -176 l125 -151 135 3 135 3 3 688 2 687
-167 0 -166 0 6 -387z"/>
</g>
</svg>
